{"title":"The Crusades 1935 DVDRip x264-PsiX","uid":9206252,"size":1740917337,"categoryP":"video","categoryS":"movies","magnet":"?xt=urn:btih:e6e571789b2fc05e6b4cfe73d33513367d1bb703&amp;dn=The+Crusades+1935+DVDRip+x264-PsiX&amp;tr=udp%3A%2F%2Ftracker.openbittorrent.com%3A80&amp;tr=udp%3A%2F%2Fopen.demonii.com%3A1337&amp;tr=udp%3A%2F%2Ftracker.coppersurfer.tk%3A6969&amp;tr=udp%3A%2F%2Fexodus.desync.com%3A6969","seeders":0,"leechers":1,"uploader":"sakhslitsa","files":5,"time":1384701732,"description":"Format : Matroska\nFormat version : Version 2\nFile size : 1.60 GiB\nDuration : 2h 5mn\nOverall bit rate : 1 826 Kbps\nEncoded date : UTC 2013-11-14 14:33:51\nWriting application : mkvmerge v6.2.0 ('Promised Land') built on Apr 28 2013 12:22:01\nWriting library : libebml v1.3.0 + libmatroska v1.4.0\n\nVideo\nID : 1\nFormat : AVC\nFormat/Info : Advanced Video Codec\nFormat profile : &lt;a class=&quot;__cf_email__&quot; href=&quot;/cdn-cgi/l/email-protection&quot; data-cfemail=&quot;bef6d7d9d6fef28a908f&quot;&gt;[email&amp;#160;protected]&lt;/a&gt;&lt;script cf-hash='f9e31' type=&quot;text/javascript&quot;&gt;\n/* &lt;![CDATA[ */!function(){try{var t=&quot;currentScript&quot;in document?document.currentScript:function(){for(var t=document.getElementsByTagName(&quot;script&quot;),e=t.length;e--;)if(t[e].getAttribute(&quot;cf-hash&quot;))return t[e]}();if(t&amp;&amp;t.previousSibling){var e,r,n,i,c=t.previousSibling,a=c.getAttribute(&quot;data-cfemail&quot;);if(a){for(e=&quot;&quot;,r=parseInt(a.substr(0,2),16),n=2;a.length-n;n+=2)i=parseInt(a.substr(n,2),16)^r,e+=String.fromCharCode(i);e=document.createTextNode(e),c.parentNode.replaceChild(e,c)}}}catch(u){}}();/* ]]&gt; */&lt;/script&gt;\nFormat settings, CABAC : Yes\nFormat settings, ReFrames : 6 frames\nCodec ID : V_MPEG4/ISO/AVC\nDuration : 2h 5mn\nBit rate : 1 632 Kbps\nWidth : 640 pixels\nHeight : 480 pixels\nDisplay aspect ratio : 4:3\nFrame rate mode : Constant\nFrame rate : 23.976 fps\nColor space : YUV\nChroma subsampling : 4:2:0\nBit depth : 8 bits\nScan type : Progressive\nBits/(Pixel*Frame) : 0.222\nStream size : 1.40 GiB (87%)\nWriting library : x264 core 140 r2377 1ca7bb9\n\n\nAudio\nID : 2\nFormat : AC-3\nFormat/Info : Audio Coding 3\nMode extension : CM (complete main)\nFormat settings, Endianness : Big\nCodec ID : A_AC3\nDuration : 2h 5mn\nBit rate mode : Constant\nBit rate : 192 Kbps\nChannel(s) : 1 channel\nChannel positions : Front: C\nSampling rate : 48.0 KHz\nBit depth : 16 bits\nCompression mode : Lossy\nStream size : 173 MiB (11%)\nDefault : Yes\nForced : No\n\nMenu\n00:00:00.000 : en:Chapter 01\n00:01:53.133 : en:Chapter 02\n00:07:24.101 : en:Chapter 03\n00:15:31.201 : en:Chapter 04\n00:19:32.735 : en:Chapter 05\n00:29:13.969 : en:Chapter 06\n00:39:40.136 : en:Chapter 07\n00:45:19.603 : en:Chapter 08\n00:51:06.770 : en:Chapter 09\n01:01:03.437 : en:Chapter 10\n01:07:02.038 : en:Chapter 11\n01:18:03.739 : en:Chapter 12\n01:25:37.707 : en:Chapter 13\n01:32:48.541 : en:Chapter 14\n01:39:15.674 : en:Chapter 15\n01:49:14.508 : en:Chapter 16\n01:57:17.376 : en:Chapter 17\n02:04:13.543 : en:Chapter 18\n02:05:35.144 : en:Chapter 19\n\n\n\n\nEncoded................PsiX\nSource...................DVD5 NTSC (Thanks)\nSample......................No\nSubs....................... (srt) En\nSubs....................... (idx) En, Esp, Fr\n\n\nGreetz To: tomcat-12 | ETRG | Blacksheep | FWOLF | CFR .....and all P2P Encoders and Groups","torrent":{"xt":"urn:btih:e6e571789b2fc05e6b4cfe73d33513367d1bb703","amp;dn":"The+Crusades+1935+DVDRip+x264-PsiX","amp;tr":["udp%3A%2F%2Ftracker.openbittorrent.com%3A80","udp%3A%2F%2Fopen.demonii.com%3A1337","udp%3A%2F%2Ftracker.coppersurfer.tk%3A6969","udp%3A%2F%2Fexodus.desync.com%3A6969"],"infoHash":"e6e571789b2fc05e6b4cfe73d33513367d1bb703","infoHashBuffer":{"type":"Buffer","data":[230,229,113,120,155,47,192,94,107,76,254,115,211,53,19,54,125,27,183,3]},"announce":[],"urlList":[]}}